<svg id="Layer_1" height="512" viewBox="0 0 512 512" width="512" xmlns="http://www.w3.org/2000/svg"><path d="M256 158.533c-8.284 0-15-6.716-15-15V15c0-8.284 6.716-15 15-15s15 6.716 15 15v128.533c0 8.284-6.716 15-15 15z" fill="#409d77"/><path d="M465.808 0h-75.293C316.67 0 256.54 59.808 256 133.528h104.398c65.852 0 119.431-53.555 119.469-119.398C479.871 6.359 473.579 0 465.808 0z" fill="#90e39a"/><path d="M336.333 512c-31.881 0-47.365-12.643-58.671-21.874-8.713-7.114-12.933-10.26-21.663-10.26s-12.95 3.146-21.663 10.26C223.031 499.357 207.547 512 175.667 512c-55.192 0-93.935-70.2-101.535-84.134-26.298-48.213-41.998-106.456-41.998-155.8 0-103.074 69.323-159.6 143.533-159.6 35.05 0 51.642 16.066 80.333 16.066 28.697 0 45.292-16.066 80.333-16.066 74.129 0 143.533 56.404 143.533 159.6 0 49.344-15.7 107.587-41.998 155.8C430.269 441.799 391.526 512 336.333 512z" fill="#fe3246"/><path d="M336.333 512c-31.881 0-47.365-12.643-58.671-21.874-8.713-7.114-12.933-10.26-21.663-10.26V128.533c28.697 0 45.292-16.066 80.333-16.066 74.129 0 143.533 56.404 143.533 159.6 0 49.344-15.7 107.587-41.998 155.8C430.269 441.799 391.526 512 336.333 512z" fill="#d70f00"/></svg>